<svg width="1280" height="450" viewBox="0 0 1280 450" fill="none" xmlns="http://www.w3.org/2000/svg">
<path d="M531 370.553C517.85 370.553 506.478 368.201 496.884 363.499C487.346 358.749 479.981 352.147 474.788 343.692C469.596 335.19 467 325.334 467 314.124C467 302.819 469.596 292.939 474.788 284.484C479.981 275.982 487.346 269.38 496.884 264.677C506.478 259.927 517.85 257.553 531 257.553C544.15 257.553 555.494 259.927 565.032 264.677C574.626 269.38 582.019 275.982 587.212 284.484C592.404 292.939 595 302.819 595 314.124C595 325.334 592.404 335.19 587.212 343.692C582.019 352.147 574.626 358.749 565.032 363.499C555.494 368.201 544.15 370.553 531 370.553ZM531.169 347.041C537.152 347.041 542.146 345.616 546.153 342.766C550.161 339.868 553.18 335.926 555.212 330.938C557.3 325.951 558.344 320.275 558.344 313.91C558.344 307.545 557.3 301.869 555.212 296.882C553.18 291.894 550.161 287.952 546.153 285.054C542.146 282.157 537.152 280.708 531.169 280.708C525.13 280.708 520.051 282.157 515.931 285.054C511.868 287.952 508.792 291.894 506.704 296.882C504.672 301.869 503.656 307.545 503.656 313.91C503.656 320.275 504.672 325.951 506.704 330.938C508.792 335.926 511.868 339.868 515.931 342.766C520.051 345.616 525.13 347.041 531.169 347.041Z" fill="black"/>
<path d="M519.541 293.386C520.693 290.77 524.405 290.77 525.556 293.386C526.208 294.866 527.84 295.653 529.404 295.239C532.167 294.508 534.482 297.41 533.154 299.942C532.403 301.374 532.806 303.141 534.105 304.105C536.399 305.81 535.573 309.429 532.766 309.969C531.178 310.275 530.048 311.692 530.103 313.308C530.201 316.165 526.857 317.776 524.684 315.918C523.455 314.867 521.643 314.867 520.413 315.918C518.241 317.776 514.896 316.165 514.994 313.308C515.049 311.692 513.92 310.275 512.331 309.969C509.524 309.429 508.698 305.81 510.993 304.105C512.291 303.141 512.694 301.374 511.943 299.942C510.616 297.41 512.93 294.508 515.693 295.239C517.257 295.653 518.89 294.866 519.541 293.386Z" fill="#577FF6"/>
<path d="M450.797 222.862V368.317H420.541V222.862H450.797Z" fill="black"/>
<path d="M403.004 290.334L375.305 292.038C374.831 289.671 373.813 287.54 372.251 285.646C370.688 283.705 368.629 282.166 366.072 281.03C363.562 279.846 360.556 279.254 357.052 279.254C352.364 279.254 348.411 280.249 345.191 282.237C341.971 284.179 340.361 286.783 340.361 290.05C340.361 292.654 341.403 294.856 343.486 296.655C345.57 298.454 349.145 299.898 354.211 300.987L373.955 304.965C384.561 307.143 392.469 310.646 397.677 315.476C402.885 320.305 405.489 326.65 405.489 334.51C405.489 341.66 403.382 347.933 399.168 353.331C395.002 358.729 389.272 362.943 381.981 365.973C374.736 368.956 366.38 370.447 356.91 370.447C342.469 370.447 330.963 367.441 322.393 361.428C313.87 355.367 308.875 347.128 307.407 336.712L337.165 335.149C338.065 339.553 340.243 342.914 343.7 345.234C347.156 347.507 351.583 348.643 356.981 348.643C362.284 348.643 366.545 347.625 369.765 345.59C373.032 343.506 374.689 340.831 374.736 337.564C374.689 334.818 373.529 332.569 371.256 330.817C368.984 329.018 365.48 327.644 360.745 326.697L341.853 322.933C331.2 320.803 323.269 317.109 318.06 311.854C312.899 306.598 310.319 299.898 310.319 291.754C310.319 284.747 312.213 278.71 316.001 273.643C319.836 268.577 325.21 264.671 332.123 261.925C339.083 259.179 347.227 257.805 356.555 257.805C370.333 257.805 381.176 260.717 389.083 266.541C397.038 272.365 401.678 280.296 403.004 290.334Z" fill="black"/>
<path fill-rule="evenodd" clip-rule="evenodd" d="M261.744 259.226V368.317H292V259.226H261.744Z" fill="black"/>
<path d="M276.943 245.163C272.445 245.163 268.586 243.672 265.366 240.689C262.194 237.659 260.608 234.036 260.608 229.822C260.608 225.656 262.194 222.081 265.366 219.098C268.586 216.068 272.445 214.553 276.943 214.553C281.441 214.553 285.276 216.068 288.449 219.098C291.669 222.081 293.278 225.656 293.278 229.822C293.278 234.036 291.669 237.659 288.449 240.689C285.276 243.672 281.441 245.163 276.943 245.163Z" fill="#577FF6"/>
<path d="M183.908 368.317V259.226H213.241V278.26H214.377C216.366 271.489 219.704 266.375 224.391 262.919C229.079 259.415 234.477 257.663 240.585 257.663C242.1 257.663 243.733 257.758 245.485 257.947C247.237 258.137 248.776 258.397 250.102 258.729V285.575C248.681 285.149 246.716 284.77 244.207 284.439C241.697 284.107 239.401 283.942 237.317 283.942C232.867 283.942 228.889 284.912 225.386 286.854C221.929 288.748 219.183 291.399 217.147 294.808C215.158 298.217 214.164 302.147 214.164 306.598V368.317H183.908Z" fill="black"/>
<path d="M63.9382 368.317H30.9836L81.1967 222.862H120.827L170.969 368.317H138.015L101.58 256.101H100.444L63.9382 368.317ZM61.8785 311.143H139.719V335.149H61.8785V311.143Z" fill="black"/>
<path d="M42.4239 384.118C42.3557 383.43 42.0631 382.896 41.5461 382.516C41.029 382.135 40.3273 381.945 39.441 381.945C38.8387 381.945 38.3302 382.03 37.9154 382.2C37.5006 382.365 37.1824 382.595 36.9609 382.891C36.7449 383.186 36.637 383.521 36.637 383.896C36.6256 384.209 36.691 384.482 36.833 384.714C36.9807 384.947 37.1824 385.149 37.4381 385.32C37.6938 385.484 37.9893 385.629 38.3245 385.754C38.6597 385.874 39.0177 385.976 39.3984 386.061L40.9665 386.436C41.7279 386.607 42.4268 386.834 43.0631 387.118C43.6995 387.402 44.2506 387.751 44.7165 388.166C45.1824 388.581 45.5432 389.07 45.7989 389.632C46.0603 390.195 46.1938 390.839 46.1995 391.567C46.1938 392.635 45.9211 393.561 45.3813 394.345C44.8472 395.124 44.0745 395.729 43.0631 396.161C42.0574 396.587 40.8444 396.8 39.4239 396.8C38.0148 396.8 36.7876 396.584 35.7421 396.152C34.7023 395.72 33.8898 395.081 33.3046 394.234C32.7251 393.382 32.4211 392.328 32.3927 391.072H35.9637C36.0035 391.658 36.1711 392.146 36.4665 392.538C36.7677 392.925 37.1682 393.217 37.6682 393.416C38.1739 393.609 38.7449 393.706 39.3813 393.706C40.0063 393.706 40.5489 393.615 41.0091 393.433C41.4751 393.251 41.8359 392.999 42.0915 392.675C42.3472 392.351 42.4751 391.979 42.4751 391.558C42.4751 391.166 42.3586 390.837 42.1256 390.57C41.8984 390.303 41.5631 390.075 41.1199 389.888C40.6824 389.7 40.1455 389.53 39.5091 389.376L37.6086 388.899C36.137 388.541 34.9751 387.982 34.1228 387.22C33.2705 386.459 32.8472 385.433 32.8529 384.143C32.8472 383.087 33.1285 382.163 33.6966 381.374C34.2705 380.584 35.0574 379.967 36.0574 379.524C37.0574 379.081 38.1938 378.859 39.4665 378.859C40.762 378.859 41.8927 379.081 42.8586 379.524C43.8302 379.967 44.5859 380.584 45.1256 381.374C45.6654 382.163 45.9438 383.078 45.9609 384.118H42.4239ZM55.4566 383.462V386.189H47.5731V383.462H55.4566ZM49.3629 380.325H52.9936V392.53C52.9936 392.865 53.0447 393.126 53.147 393.314C53.2492 393.496 53.3913 393.624 53.5731 393.697C53.7606 393.771 53.9765 393.808 54.2208 393.808C54.3913 393.808 54.5617 393.794 54.7322 393.766C54.9026 393.732 55.0333 393.706 55.1242 393.689L55.6953 396.391C55.5134 396.447 55.2578 396.513 54.9282 396.587C54.5987 396.666 54.1981 396.714 53.7265 396.732C52.8515 396.766 52.0845 396.649 51.4254 396.382C50.772 396.115 50.2634 395.7 49.8998 395.138C49.5362 394.575 49.3572 393.865 49.3629 393.007V380.325ZM66.0966 390.979V383.462H69.7272V396.553H66.2414V394.175H66.1051C65.8096 394.942 65.3182 395.558 64.6307 396.024C63.9488 396.49 63.1164 396.723 62.1335 396.723C61.2585 396.723 60.4886 396.524 59.8238 396.126C59.1591 395.729 58.6392 395.163 58.2642 394.43C57.8949 393.697 57.7074 392.82 57.7017 391.797V383.462H61.3324V391.149C61.338 391.922 61.5454 392.533 61.9545 392.982C62.3636 393.43 62.9119 393.655 63.5994 393.655C64.0369 393.655 64.446 393.555 64.8267 393.357C65.2074 393.152 65.5142 392.851 65.7471 392.453C65.9858 392.055 66.1022 391.564 66.0966 390.979ZM77.3352 396.766C76.3409 396.766 75.4403 396.51 74.6335 395.999C73.8324 395.482 73.196 394.723 72.7244 393.723C72.2585 392.717 72.0256 391.484 72.0256 390.024C72.0256 388.524 72.267 387.277 72.75 386.283C73.233 385.283 73.875 384.536 74.6761 384.041C75.483 383.541 76.3665 383.291 77.3267 383.291C78.0597 383.291 78.6705 383.416 79.1591 383.666C79.6534 383.911 80.0511 384.217 80.3523 384.587C80.6591 384.95 80.892 385.308 81.0511 385.661H81.1619V379.098H84.7841V396.553H81.2045V394.456H81.0511C80.8807 394.82 80.6392 395.18 80.3267 395.538C80.0199 395.891 79.6193 396.183 79.125 396.416C78.6364 396.649 78.0398 396.766 77.3352 396.766ZM78.4858 393.876C79.071 393.876 79.5653 393.717 79.9688 393.399C80.3778 393.075 80.6903 392.624 80.9062 392.044C81.1278 391.464 81.2386 390.786 81.2386 390.007C81.2386 389.229 81.1307 388.553 80.9148 387.979C80.6989 387.405 80.3864 386.962 79.9773 386.649C79.5682 386.337 79.071 386.18 78.4858 386.18C77.8892 386.18 77.3864 386.342 76.9773 386.666C76.5682 386.99 76.2585 387.439 76.0483 388.013C75.8381 388.587 75.733 389.251 75.733 390.007C75.733 390.768 75.8381 391.442 76.0483 392.027C76.2642 392.607 76.5739 393.061 76.9773 393.391C77.3864 393.714 77.8892 393.876 78.4858 393.876ZM93.6151 396.808C92.2685 396.808 91.1094 396.536 90.1378 395.99C89.1719 395.439 88.4276 394.661 87.9049 393.655C87.3821 392.643 87.1208 391.447 87.1208 390.067C87.1208 388.72 87.3821 387.538 87.9049 386.521C88.4276 385.504 89.1634 384.712 90.1122 384.143C91.0668 383.575 92.1861 383.291 93.4702 383.291C94.3338 383.291 95.1378 383.43 95.8821 383.709C96.6321 383.982 97.2855 384.393 97.8424 384.945C98.4049 385.496 98.8424 386.189 99.1549 387.024C99.4674 387.854 99.6236 388.825 99.6236 389.939V390.936H88.5696V388.686H96.206C96.206 388.163 96.0924 387.7 95.8651 387.297C95.6378 386.893 95.3225 386.578 94.9191 386.351C94.5213 386.118 94.0583 386.001 93.5299 386.001C92.9787 386.001 92.4901 386.129 92.064 386.385C91.6435 386.635 91.314 386.973 91.0753 387.399C90.8367 387.82 90.7145 388.288 90.7088 388.805V390.945C90.7088 391.592 90.8282 392.152 91.0668 392.624C91.3111 393.095 91.6549 393.459 92.098 393.714C92.5412 393.97 93.0668 394.098 93.6747 394.098C94.0782 394.098 94.4475 394.041 94.7827 393.928C95.1179 393.814 95.4049 393.643 95.6435 393.416C95.8821 393.189 96.064 392.911 96.189 392.581L99.5469 392.803C99.3765 393.609 99.027 394.314 98.4986 394.916C97.9759 395.513 97.2997 395.979 96.4702 396.314C95.6463 396.643 94.6946 396.808 93.6151 396.808ZM105.504 388.984V396.553H101.873V383.462H105.333V385.771H105.487C105.776 385.01 106.262 384.408 106.944 383.964C107.626 383.516 108.452 383.291 109.424 383.291C110.333 383.291 111.126 383.49 111.802 383.888C112.478 384.286 113.004 384.854 113.379 385.592C113.754 386.325 113.941 387.2 113.941 388.217V396.553H110.31V388.865C110.316 388.064 110.112 387.439 109.697 386.99C109.282 386.536 108.711 386.308 107.984 386.308C107.495 386.308 107.063 386.413 106.688 386.624C106.319 386.834 106.029 387.141 105.819 387.544C105.614 387.942 105.509 388.422 105.504 388.984ZM123.646 383.462V386.189H115.762V383.462H123.646ZM117.552 380.325H121.183V392.53C121.183 392.865 121.234 393.126 121.336 393.314C121.438 393.496 121.58 393.624 121.762 393.697C121.95 393.771 122.166 393.808 122.41 393.808C122.58 393.808 122.751 393.794 122.921 393.766C123.092 393.732 123.222 393.706 123.313 393.689L123.884 396.391C123.702 396.447 123.447 396.513 123.117 396.587C122.788 396.666 122.387 396.714 121.916 396.732C121.041 396.766 120.274 396.649 119.614 396.382C118.961 396.115 118.452 395.7 118.089 395.138C117.725 394.575 117.546 393.865 117.552 393.007V380.325Z" fill="black" fill-opacity="0.55"/>
<line x1="-2" y1="442.553" x2="1278" y2="442.553" stroke="#4E3E27" stroke-width="4"/>
<path d="M1245 412.258L1209.3 412.258L1209.3 390.532L1212.82 390.532L1212.82 407.974L1225.36 407.974L1225.36 393.133L1228.83 393.133L1228.83 407.974L1245 407.974L1245 412.258ZM1245.61 376.974C1245.61 379.354 1245.07 381.496 1243.98 383.4C1242.89 385.304 1241.36 386.817 1239.39 387.939C1237.38 389.027 1235.04 389.571 1232.35 389.571C1229.67 389.571 1227.34 389.01 1225.36 387.888C1223.36 386.766 1221.81 385.253 1220.72 383.349C1219.64 381.411 1219.09 379.252 1219.09 376.872C1219.09 374.492 1219.64 372.35 1220.72 370.446C1221.81 368.542 1223.36 367.046 1225.36 365.958C1227.34 364.836 1229.67 364.275 1232.35 364.275C1235.04 364.275 1237.38 364.836 1239.39 365.958C1241.36 367.08 1242.89 368.61 1243.98 370.548C1245.07 372.452 1245.61 374.594 1245.61 376.974ZM1242.3 376.974C1242.3 375.512 1241.94 374.152 1241.23 372.894C1240.48 371.636 1239.37 370.616 1237.91 369.834C1236.45 369.052 1234.6 368.661 1232.35 368.661C1230.11 368.661 1228.25 369.052 1226.79 369.834C1225.3 370.582 1224.19 371.585 1223.48 372.843C1222.76 374.101 1222.41 375.444 1222.41 376.872C1222.41 378.3 1222.76 379.66 1223.48 380.952C1224.19 382.21 1225.3 383.23 1226.79 384.012C1228.25 384.794 1230.11 385.185 1232.35 385.185C1234.6 385.185 1236.45 384.794 1237.91 384.012C1239.37 383.23 1240.48 382.227 1241.23 381.003C1241.94 379.745 1242.3 378.402 1242.3 376.974ZM1245.61 349.133C1245.61 351.513 1245.07 353.655 1243.98 355.559C1242.89 357.463 1241.36 358.976 1239.39 360.098C1237.38 361.186 1235.04 361.73 1232.35 361.73C1229.67 361.73 1227.34 361.169 1225.36 360.047C1223.36 358.925 1221.81 357.412 1220.72 355.508C1219.64 353.57 1219.09 351.411 1219.09 349.031C1219.09 346.651 1219.64 344.509 1220.72 342.605C1221.81 340.701 1223.36 339.205 1225.36 338.117C1227.34 336.995 1229.67 336.434 1232.35 336.434C1235.04 336.434 1237.38 336.995 1239.39 338.117C1241.36 339.239 1242.89 340.769 1243.98 342.707C1245.07 344.611 1245.61 346.753 1245.61 349.133ZM1242.3 349.133C1242.3 347.671 1241.94 346.311 1241.23 345.053C1240.48 343.795 1239.37 342.775 1237.91 341.993C1236.45 341.211 1234.6 340.82 1232.35 340.82C1230.11 340.82 1228.25 341.211 1226.79 341.993C1225.3 342.741 1224.19 343.744 1223.48 345.002C1222.76 346.26 1222.41 347.603 1222.41 349.031C1222.41 350.459 1222.76 351.819 1223.48 353.111C1224.19 354.369 1225.3 355.389 1226.79 356.171C1228.25 356.953 1230.11 357.344 1232.35 357.344C1234.6 357.344 1236.45 356.953 1237.91 356.171C1239.37 355.389 1240.48 354.386 1241.23 353.162C1241.94 351.904 1242.3 350.561 1242.3 349.133ZM1245.61 321.955C1245.61 324.403 1245.03 326.528 1243.88 328.33C1242.69 330.098 1241.09 331.475 1239.08 332.461C1237.08 333.413 1234.83 333.889 1232.35 333.889C1229.87 333.889 1227.63 333.413 1225.62 332.461C1223.61 331.475 1222.03 330.047 1220.88 328.177C1219.69 326.307 1219.09 324.046 1219.09 321.394C1219.09 319.048 1219.58 317.127 1220.57 315.631C1221.56 314.101 1222.66 312.928 1223.89 312.112L1209.3 312.112L1209.3 307.828L1245 307.828L1245 311.398L1240.15 311.806L1240.15 312.01C1241.38 312.724 1242.4 313.608 1243.21 314.662C1244 315.682 1244.59 316.804 1245 318.028C1245.41 319.252 1245.61 320.561 1245.61 321.955ZM1241.89 320.935C1241.89 319.167 1241.5 317.637 1240.72 316.345C1239.9 315.019 1238.78 313.999 1237.35 313.285C1235.92 312.571 1234.26 312.214 1232.35 312.214C1230.45 312.214 1228.78 312.571 1227.35 313.285C1225.93 313.999 1224.82 315.019 1224.04 316.345C1223.22 317.637 1222.81 319.167 1222.81 320.935C1222.81 322.703 1223.22 324.233 1224.04 325.525C1224.82 326.817 1225.93 327.82 1227.35 328.534C1228.78 329.214 1230.45 329.554 1232.35 329.554C1234.26 329.554 1235.92 329.214 1237.35 328.534C1238.78 327.82 1239.9 326.817 1240.72 325.525C1241.5 324.233 1241.89 322.703 1241.89 320.935ZM1245 303.235L1209.3 303.235L1209.3 292.27C1209.3 288.088 1210.03 284.637 1211.49 281.917C1212.92 279.197 1214.98 277.191 1217.66 275.899C1220.32 274.573 1223.51 273.91 1227.25 273.91C1230.92 273.91 1234.09 274.573 1236.74 275.899C1239.39 277.191 1241.43 279.197 1242.86 281.917C1244.29 284.637 1245 288.088 1245 292.27L1245 303.235ZM1241.43 298.951L1241.43 292.372C1241.43 288.904 1240.87 286.15 1239.75 284.11C1238.59 282.036 1236.96 280.557 1234.85 279.673C1232.71 278.789 1230.18 278.347 1227.25 278.347C1224.26 278.347 1221.69 278.789 1219.55 279.673C1217.41 280.557 1215.76 282.036 1214.6 284.11C1213.45 286.15 1212.87 288.904 1212.87 292.372L1212.87 298.951L1241.43 298.951ZM1245.61 261.503C1245.61 263.509 1245.25 265.192 1244.54 266.552C1243.83 267.912 1242.87 268.932 1241.68 269.612C1240.49 270.258 1239.2 270.581 1237.81 270.581C1236.07 270.581 1234.61 270.139 1233.42 269.255C1232.23 268.337 1231.33 267.062 1230.72 265.43C1230.07 263.764 1229.75 261.809 1229.75 259.565L1229.75 252.731C1228.08 252.731 1226.71 252.986 1225.62 253.496C1224.53 254.006 1223.73 254.737 1223.22 255.689C1222.68 256.641 1222.41 257.78 1222.41 259.106C1222.41 260.772 1222.83 262.217 1223.68 263.441C1224.53 264.665 1225.84 265.413 1227.61 265.685L1227.61 270.071C1225.77 269.867 1224.23 269.272 1222.97 268.286C1221.71 267.266 1220.76 265.974 1220.11 264.41C1219.43 262.812 1219.09 261.044 1219.09 259.106C1219.09 256.692 1219.53 254.703 1220.42 253.139C1221.27 251.541 1222.47 250.368 1224.04 249.62C1225.57 248.838 1227.37 248.447 1229.44 248.447L1245 248.447L1245 252.017L1240.66 252.425L1240.66 252.629C1241.48 253.105 1242.19 253.666 1242.81 254.312C1243.42 254.924 1243.93 255.604 1244.34 256.352C1244.74 257.1 1245.05 257.916 1245.25 258.8C1245.49 259.65 1245.61 260.551 1245.61 261.503ZM1241.99 260.738C1241.99 259.446 1241.75 258.307 1241.28 257.321C1240.77 256.335 1240.09 255.502 1239.24 254.822C1238.39 254.142 1237.43 253.632 1236.38 253.292C1235.29 252.918 1234.19 252.731 1233.07 252.731L1233.07 259.208C1233.07 260.874 1233.27 262.217 1233.68 263.237C1234.05 264.257 1234.58 264.988 1235.26 265.43C1235.94 265.872 1236.72 266.093 1237.6 266.093C1238.49 266.093 1239.27 265.889 1239.95 265.481C1240.6 265.039 1241.11 264.427 1241.48 263.645C1241.82 262.829 1241.99 261.86 1241.99 260.738ZM1245 235.271C1245 236.801 1244.76 238.127 1244.29 239.249C1243.81 240.371 1243.01 241.238 1241.89 241.85C1240.73 242.428 1239.19 242.717 1237.25 242.717L1222.76 242.717L1222.76 247.103L1219.7 247.103L1219.7 242.717L1213.63 242.207L1213.63 238.433L1219.7 238.433L1219.7 230.987L1222.76 230.987L1222.76 238.433L1237.25 238.433C1239.02 238.433 1240.21 238.11 1240.82 237.464C1241.4 236.818 1241.68 235.679 1241.68 234.047L1241.68 231.395L1245 231.395L1245 235.271ZM1245.61 220.115C1245.61 222.121 1245.25 223.804 1244.54 225.164C1243.83 226.524 1242.87 227.544 1241.68 228.224C1240.49 228.87 1239.2 229.193 1237.81 229.193C1236.07 229.193 1234.61 228.751 1233.42 227.867C1232.23 226.949 1231.33 225.674 1230.72 224.042C1230.07 222.376 1229.75 220.421 1229.75 218.177L1229.75 211.343C1228.08 211.343 1226.71 211.598 1225.62 212.108C1224.53 212.618 1223.73 213.349 1223.22 214.301C1222.68 215.253 1222.41 216.392 1222.41 217.718C1222.41 219.384 1222.83 220.829 1223.68 222.053C1224.53 223.277 1225.84 224.025 1227.61 224.297L1227.61 228.683C1225.77 228.479 1224.23 227.884 1222.97 226.898C1221.71 225.878 1220.76 224.586 1220.11 223.022C1219.43 221.424 1219.09 219.656 1219.09 217.718C1219.09 215.304 1219.53 213.315 1220.42 211.751C1221.27 210.153 1222.47 208.98 1224.04 208.232C1225.57 207.45 1227.37 207.059 1229.44 207.059L1245 207.059L1245 210.629L1240.66 211.037L1240.66 211.241C1241.48 211.717 1242.19 212.278 1242.81 212.924C1243.42 213.536 1243.93 214.216 1244.34 214.964C1244.74 215.712 1245.05 216.528 1245.25 217.412C1245.49 218.262 1245.61 219.163 1245.61 220.115ZM1241.99 219.35C1241.99 218.058 1241.75 216.919 1241.28 215.933C1240.77 214.947 1240.09 214.114 1239.24 213.434C1238.39 212.754 1237.43 212.244 1236.38 211.904C1235.29 211.53 1234.19 211.343 1233.07 211.343L1233.07 217.82C1233.07 219.486 1233.27 220.829 1233.68 221.849C1234.05 222.869 1234.58 223.6 1235.26 224.042C1235.94 224.484 1236.72 224.705 1237.6 224.705C1238.49 224.705 1239.27 224.501 1239.95 224.093C1240.6 223.651 1241.11 223.039 1241.48 222.257C1241.82 221.441 1241.99 220.472 1241.99 219.35ZM1245.61 191.095C1245.61 193.713 1245.14 195.991 1244.18 197.929C1243.23 199.867 1241.91 201.363 1240.21 202.417C1238.51 203.471 1236.53 203.998 1234.29 203.998L1234.29 199.51C1235.68 199.51 1236.98 199.204 1238.17 198.592C1239.32 197.98 1240.26 197.045 1240.97 195.787C1241.65 194.529 1241.99 192.948 1241.99 191.044C1241.99 189.514 1241.77 188.171 1241.33 187.015C1240.89 185.859 1240.22 184.958 1239.34 184.312C1238.45 183.632 1237.35 183.292 1236.02 183.292C1234.7 183.292 1233.61 183.598 1232.76 184.21C1231.88 184.788 1231.14 185.587 1230.57 186.607C1229.99 187.627 1229.5 188.766 1229.09 190.024C1228.65 191.248 1228.2 192.506 1227.76 193.798C1226.67 196.892 1225.36 199.17 1223.83 200.632C1222.27 202.06 1220.35 202.774 1218.07 202.774C1216.27 202.774 1214.67 202.332 1213.28 201.448C1211.85 200.53 1210.73 199.238 1209.91 197.572C1209.1 195.872 1208.69 193.866 1208.69 191.554C1208.69 189.276 1209.11 187.304 1209.96 185.638C1210.81 183.938 1211.99 182.612 1213.48 181.66C1214.94 180.708 1216.64 180.232 1218.58 180.232L1218.58 184.72C1217.32 184.72 1216.22 184.992 1215.27 185.536C1214.31 186.08 1213.57 186.879 1213.02 187.933C1212.44 188.987 1212.16 190.313 1212.16 191.911C1212.16 193.169 1212.34 194.308 1212.72 195.328C1213.09 196.314 1213.69 197.096 1214.5 197.674C1215.32 198.218 1216.37 198.49 1217.66 198.49C1218.75 198.49 1219.65 198.269 1220.37 197.827C1221.08 197.385 1221.71 196.739 1222.25 195.889C1222.76 195.005 1223.27 193.934 1223.78 192.676C1224.26 191.384 1224.8 189.905 1225.42 188.239C1226.03 186.505 1226.76 184.958 1227.61 183.598C1228.42 182.204 1229.46 181.116 1230.72 180.334C1231.98 179.518 1233.58 179.11 1235.51 179.11C1237.25 179.11 1238.9 179.552 1240.46 180.436C1241.99 181.32 1243.23 182.646 1244.18 184.414C1245.14 186.182 1245.61 188.409 1245.61 191.095ZM1245.61 163.857C1245.61 166.509 1245.07 168.787 1243.98 170.691C1242.86 172.561 1241.31 174.006 1239.34 175.026C1237.33 176.046 1235 176.556 1232.35 176.556C1229.7 176.556 1227.39 176.012 1225.42 174.924C1223.41 173.802 1221.86 172.289 1220.77 170.385C1219.65 168.447 1219.09 166.271 1219.09 163.857C1219.09 160.831 1219.87 158.298 1221.44 156.258C1223 154.218 1225.09 152.926 1227.71 152.382L1227.71 156.768C1225.98 157.108 1224.67 157.941 1223.78 159.267C1222.87 160.593 1222.41 162.14 1222.41 163.908C1222.41 165.336 1222.78 166.679 1223.53 167.937C1224.24 169.195 1225.33 170.215 1226.79 170.997C1228.25 171.779 1230.11 172.17 1232.35 172.17C1233.95 172.17 1235.36 171.966 1236.58 171.558C1237.77 171.116 1238.78 170.521 1239.59 169.773C1240.41 169.025 1241.02 168.158 1241.43 167.172C1241.84 166.152 1242.04 165.064 1242.04 163.908C1242.04 162.718 1241.85 161.63 1241.48 160.644C1241.07 159.658 1240.49 158.825 1239.75 158.145C1238.96 157.465 1238.05 157.006 1236.99 156.768L1236.99 152.382C1239.54 152.926 1241.62 154.218 1243.21 156.258C1244.81 158.298 1245.61 160.831 1245.61 163.857ZM1245 148.179L1219.7 148.179L1219.7 143.895L1245 143.895L1245 148.179ZM1214.65 146.037C1214.65 146.887 1214.37 147.601 1213.79 148.179C1213.21 148.757 1212.5 149.046 1211.65 149.046C1210.83 149.046 1210.13 148.757 1209.55 148.179C1208.98 147.601 1208.69 146.887 1208.69 146.037C1208.69 145.221 1208.98 144.524 1209.55 143.946C1210.13 143.368 1210.85 143.079 1211.7 143.079C1212.51 143.079 1213.21 143.368 1213.79 143.946C1214.37 144.524 1214.65 145.221 1214.65 146.037ZM1245.61 127.306C1245.61 129.72 1245.07 131.862 1243.98 133.732C1242.86 135.602 1241.31 137.081 1239.34 138.169C1237.33 139.223 1235 139.75 1232.35 139.75C1229.67 139.75 1227.34 139.223 1225.36 138.169C1223.39 137.115 1221.86 135.653 1220.77 133.783C1219.65 131.879 1219.09 129.686 1219.09 127.204C1219.09 124.722 1219.65 122.597 1220.77 120.829C1221.86 119.061 1223.31 117.701 1225.11 116.749C1226.88 115.797 1228.82 115.321 1230.92 115.321C1231.26 115.321 1231.64 115.321 1232.05 115.321C1232.42 115.321 1232.84 115.338 1233.32 115.372L1233.32 136.537L1230.01 136.537L1230.01 119.554C1227.59 119.656 1225.72 120.438 1224.4 121.9C1223.07 123.328 1222.41 125.13 1222.41 127.306C1222.41 128.768 1222.73 130.128 1223.38 131.386C1224.02 132.644 1224.99 133.664 1226.28 134.446C1227.57 135.194 1229.21 135.568 1231.18 135.568L1232.61 135.568C1234.71 135.568 1236.47 135.177 1237.86 134.395C1239.25 133.613 1240.31 132.593 1241.02 131.335C1241.7 130.043 1242.04 128.7 1242.04 127.306C1242.04 125.538 1241.63 124.059 1240.82 122.869C1240 121.679 1238.88 120.812 1237.45 120.268L1237.45 116.035C1239.02 116.477 1240.41 117.208 1241.63 118.228C1242.86 119.248 1243.83 120.523 1244.54 122.053C1245.25 123.549 1245.61 125.3 1245.61 127.306ZM1245 112.24L1219.7 112.24L1219.7 108.466L1223.68 108.058L1223.68 107.854C1222.29 106.97 1221.18 105.814 1220.37 104.386C1219.52 102.958 1219.09 101.241 1219.09 99.2351C1219.09 97.2971 1219.5 95.5971 1220.32 94.1351C1221.1 92.6731 1222.32 91.5511 1223.99 90.7691C1225.62 89.9531 1227.69 89.5451 1230.21 89.5451L1245 89.5451L1245 93.8291L1230.67 93.8291C1228.05 93.8291 1226.08 94.3901 1224.75 95.5121C1223.43 96.6341 1222.76 98.2491 1222.76 100.357C1222.76 101.819 1223.12 103.128 1223.83 104.284C1224.55 105.406 1225.59 106.307 1226.95 106.987C1228.27 107.633 1229.92 107.956 1231.89 107.956L1245 107.956L1245 112.24ZM1245.61 73.81C1245.61 76.462 1245.07 78.74 1243.98 80.644C1242.86 82.514 1241.31 83.959 1239.34 84.979C1237.33 85.999 1235 86.509 1232.35 86.509C1229.7 86.509 1227.39 85.965 1225.42 84.877C1223.41 83.755 1221.86 82.242 1220.77 80.338C1219.65 78.4 1219.09 76.224 1219.09 73.81C1219.09 70.784 1219.87 68.251 1221.44 66.211C1223 64.171 1225.09 62.879 1227.71 62.335L1227.71 66.721C1225.98 67.061 1224.67 67.894 1223.78 69.22C1222.87 70.546 1222.41 72.093 1222.41 73.861C1222.41 75.289 1222.78 76.632 1223.53 77.89C1224.24 79.148 1225.33 80.168 1226.79 80.95C1228.25 81.732 1230.11 82.123 1232.35 82.123C1233.95 82.123 1235.36 81.919 1236.58 81.511C1237.77 81.069 1238.78 80.474 1239.59 79.726C1240.41 78.978 1241.02 78.111 1241.43 77.125C1241.84 76.105 1242.04 75.017 1242.04 73.861C1242.04 72.671 1241.85 71.583 1241.48 70.597C1241.07 69.611 1240.49 68.778 1239.75 68.098C1238.96 67.418 1238.05 66.959 1236.99 66.721L1236.99 62.335C1239.54 62.879 1241.62 64.171 1243.21 66.211C1244.81 68.251 1245.61 70.784 1245.61 73.81ZM1245.61 47.3199C1245.61 49.7339 1245.07 51.8759 1243.98 53.7459C1242.86 55.6159 1241.31 57.0949 1239.34 58.1829C1237.33 59.2369 1235 59.7639 1232.35 59.7639C1229.67 59.7639 1227.34 59.2369 1225.36 58.1829C1223.39 57.1289 1221.86 55.6669 1220.77 53.7969C1219.65 51.8929 1219.09 49.6999 1219.09 47.2179C1219.09 44.7359 1219.65 42.6109 1220.77 40.8429C1221.86 39.0749 1223.31 37.7149 1225.11 36.7629C1226.88 35.8109 1228.82 35.3349 1230.92 35.3349C1231.26 35.3349 1231.64 35.3349 1232.05 35.3349C1232.42 35.3349 1232.84 35.3519 1233.32 35.3859L1233.32 56.5509L1230.01 56.5509L1230.01 39.5679C1227.59 39.6699 1225.72 40.4519 1224.4 41.9139C1223.07 43.3419 1222.41 45.1439 1222.41 47.3199C1222.41 48.7819 1222.73 50.1419 1223.38 51.3999C1224.02 52.6579 1224.99 53.6779 1226.28 54.4599C1227.57 55.2079 1229.21 55.5819 1231.18 55.5819L1232.61 55.5819C1234.71 55.5819 1236.47 55.1909 1237.86 54.4089C1239.25 53.6269 1240.31 52.6069 1241.02 51.3489C1241.7 50.0569 1242.04 48.7139 1242.04 47.3199C1242.04 45.5519 1241.63 44.0729 1240.82 42.8829C1240 41.6929 1238.88 40.8259 1237.45 40.2819L1237.45 36.0489C1239.02 36.4909 1240.41 37.2219 1241.63 38.2419C1242.86 39.2619 1243.83 40.5369 1244.54 42.0669C1245.25 43.5629 1245.61 45.3139 1245.61 47.3199Z" fill="black" fill-opacity="0.4"/>
</svg>
